<svg xmlns="http://www.w3.org/2000/svg" xml:space="preserve" height="284.313" width="788.938"><path d="m46.389 96.338-1.437-3.193L26.6 52.186l-.377-.84-.834.385-.557.256-3.267 1.604c-.482-.808-1.282-2.162-1.838-3.101L12.34 38.006l-1.932-3.259 3.196-2.025c3.023-1.928 6.437-3.709 10.151-5.295 7.395-3.15 14.943-4.816 21.826-4.816 2.264 0 4.455.183 6.513.541 3.431.391 6.604 1.517 9.225 3.263 3.906 2.184 6.981 5.572 8.718 9.58 1.426 3.294 1.704 7.152.798 11.154l-.532 2.351 1.953-1.416a22.633 22.633 0 0 1 4.25-2.426c2.6-1.099 5.29-1.66 7.985-1.66 2.551 0 4.963.505 7.17 1.498l1.423.638-.143-1.553-.619-6.711-.1-1.064-1.036.269-3.109.806-.545-11.427 22.774-7.276-.184 8.881 1.715.44 4.974-9.532 14.897 13.212.621.553.606-.57c2.041-1.918 4.46-3.457 7.189-4.574l1.14-.466-.781-.953-2.686-3.274L154.9 3.181l8.957 13.365-13.711 7.37-3.045 1.638 3.457.073c6.5.137 12.256 2.887 16.205 7.742l1.428 1.761.92 1.131-1.528 1.622-1.019 1.082-3.426 3.654-.637.679.689.622 3.211 2.891 1.242 1.117.266-1.648 1.232-7.627.315-1.958.01.011.324-2 1.839-11.26h17.188l.13-.759.321-1.928h14.785l3.582 22.621.233 1.465 1.2-.871a20.68 20.68 0 0 1 4.766-2.576c2.279-.86 4.625-1.299 6.967-1.299 2.788 0 5.495.644 7.836 1.861.062.045.15.103.27.151l1.111.446.131-1.192.268-2.465.088-.808-.795-.177-2.998-.67-.146-11.792 22.857 5.031 1.717 8.485 1.775.035 1.771-7.302 19.06 4.635-19.478 58.703-13.938-4.377-.099-5.407-.014-.775-.769-.108-13.908-1.963.787-7.069.187-1.682-1.505.771c-.713.363-1.403.668-2.055.908-2.274.86-4.603 1.295-6.922 1.295-.671 0-1.345-.037-2.001-.111l-1.188-.133.186 1.18.979 6.217-20.291-3.579-1.063-9.226-.342-2.957-1.367 2.643-2.336 4.505-4.301-7.94-1.293-2.385-.408 2.68-.937 6.146-17.784-2.799 1.379-8.435.315-1.934-1.681 1.005c-2.911 1.745-6.254 3.058-10.217 4.015a27.931 27.931 0 0 1-4.305.694l-.834.07v16.755L113.52 65.735l-1.316-.649.001 1.467.024 14.804-15.659 2.307-.658-7.109-.178-1.902-1.365 1.338c-2.069 2.025-4.4 3.595-6.927 4.667-2.585 1.099-5.252 1.655-7.925 1.655-2.669 0-5.177-.558-7.455-1.649-4.22-2.03-7.264-5.713-8.57-10.36-.622-2.183-.791-4.488-.502-6.854l.309-2.52-1.838 1.75a44.332 44.332 0 0 1-4.152 3.484l-.495.365.156.595 5.275 20.248.932 3.593-3.532 1.123-9.932 3.18-3.324 1.07zm4.458-54.356c-.512 0-1.041.047-1.574.143l-.676.13-.998.192.301.972.196.632 2.84 9.293.284.893.422 1.34 1.05-.934.697-.621c2.753-2.474 3.718-4.986 3.137-8.154-.366-1.901-1.838-2.848-2.684-3.244-.884-.426-1.896-.642-2.995-.642zm76.135.305-1.775 1.728-4.675 4.543-1.018.989 1.325.512 5.014 1.935 1.54.593-.318-1.618a21.492 21.492 0 0 1-.328-6.217l.235-2.465zm20.416-5.167a7.022 7.022 0 0 0-6.125 10.389l.381.715.613 1.143.863-.966.555-.615 6.858-7.83.539-.62.865-.994-1.234-.457-.769-.284a6.986 6.986 0 0 0-2.546-.481z" style="fill:#ffcb05" transform="matrix(2.9688 0 0 2.9688 -27.245 -5.008)"/><path d="M152.438 47.032a1.127 1.127 0 0 0-.179.208c.069-.063.136-.118.207-.176l-.028-.032zM115.715 47.522l.052.022-.052-.022z" style="fill:#7d7f68" transform="matrix(2.9688 0 0 2.9688 -11.062 -.003)"/><path d="M58.588 46.145c-.899-4.824-7.207-7.483-13.461-4.072l1.612 5.521 2.536 8.159 1.157 3.716c4.692-3.017 9.408-6.642 8.156-13.324zm-6.212 7.418c-.683-2.229-2.181-7.042-2.181-7.042.007.022-.295-1.03-.653-2.234 1.326-.237 2.6-.141 3.648.363.586.279 1.616.93 1.841 2.164.518 2.774-.417 4.754-2.655 6.749z" style="fill:#3567b0;fill-opacity:1" transform="matrix(2.9688 0 0 2.9688 -27.245 -5.008)"/><path d="M153.223 38.491c-3.496-3.207-8.93-2.958-12.119.535-3.208 3.487-2.956 8.924.545 12.118.285.275.593.5.903.721l11.277-12.771a12.294 12.294 0 0 0-.606-.603zm-10.648 8.983c-1.103-2.025-.88-4.596.769-6.398a5.548 5.548 0 0 1 6.088-1.421l-6.857 7.819z" style="fill:#3567b0" transform="matrix(2.9688 0 0 2.9688 -27.245 -5.008)"/><path d="M220.748 48.295c.095.379.144.754.132 1.153-.104 2.386-2.347 4.228-5.021 4.103-2.672-.092-4.771-2.12-4.666-4.5.09-2.231 2.078-3.997 4.533-4.11a7.912 7.912 0 0 0-1.461-.178c-4.473-.193-8.129 2.975-8.283 6.919-.172 4.218 3.209 7.657 7.611 7.848 4.479.179 8.133-3 8.311-7.198.052-1.455-.378-2.85-1.156-4.037" style="fill:#3466af" transform="matrix(2.9688 0 0 2.9688 -11.062 -.003)"/><path d="M85.053 53.112c0 2.396-2.179 4.316-4.848 4.316-2.676 0-4.847-1.921-4.847-4.316 0-2.233 1.91-4.074 4.358-4.288a8.183 8.183 0 0 0-1.461-.134c-4.472 0-8 3.317-8 7.267 0 4.215 3.529 7.521 7.928 7.521 4.476 0 8.001-3.308 8.001-7.521a6.703 6.703 0 0 0-1.311-3.966c.112.341.18.719.18 1.121" style="fill:#3567b0;fill-opacity:1" transform="matrix(2.9688 0 0 2.9688 -11.062 -.003)"/><path d="m254.02 30.598-1.986 8.185-1.834-9.063-24.559-5.406.172 13.656 3.701.83-.267 2.463c-.048-.019-.078-.048-.104-.069-4.588-2.421-10.276-2.669-15.629-.647a21.555 21.555 0 0 0-4.975 2.688l-3.705-23.388h-16.333l-.45 2.689H170.86l-1.963 12.023-1.426-1.761c-4.166-5.118-10.205-7.937-16.895-8.077l14.596-7.845-10.178-15.189-18.389 21.189 3.174 3.87c-2.875 1.175-5.387 2.795-7.468 4.752l-15.767-13.989-5.513 10.566.212-10.154-24.651 7.875.632 13.244 4.194-1.088.62 6.712c-4.792-2.152-10.552-2.099-15.894.158a23.55 23.55 0 0 0-4.419 2.524c.924-4.089.705-8.12-.853-11.715-1.84-4.248-5.078-7.759-9.048-9.974-2.783-1.854-6.1-3.009-9.571-3.402-8.53-1.491-18.773.04-28.854 4.335-3.706 1.581-7.163 3.375-10.281 5.361L9.177 34.45l2.38 4.019 7.386 12.483s2.26 3.825 2.275 3.823l3.994-1.963.557-.256 18.353 40.961 1.77 3.937 4.098-1.32 9.93-3.181 4.352-1.383-1.148-4.43-5.274-20.245a44.468 44.468 0 0 0 4.24-3.561c-.295 2.419-.14 4.868.526 7.212 1.379 4.908 4.593 8.785 9.053 10.933 4.817 2.315 10.694 2.321 16.131.015 2.727-1.157 5.152-2.845 7.207-4.854l.749 8.063 17.39-2.561-.027-15.593 36.337 17.959V67.119a28.666 28.666 0 0 0 4.442-.719c4.002-.967 7.427-2.293 10.47-4.116l-1.526 9.339 19.592 3.083 1.075-7.05 5.117 9.453 3.128-6.027 1.143 9.896 22.213 3.916-1.178-7.473c3.041.344 6.246-.064 9.342-1.232a20.05 20.05 0 0 0 2.15-.955l-.885 7.951 14.784 2.086.11 6.063 15.416 4.839 20.071-60.495-20.9-5.08zm-86.793 8.99 1.019-1.083-1.231 7.627-3.211-2.892 3.423-3.652zM154.209 8.432l5.382 7.311-15.387 7.628-1.063-1.615 11.068-13.324zM52.32 64.809l6.139 23.555-9.936 3.174-20.389-45.534c-1.109.583-3.157 1.561-5.038 2.483l-7.383-12.472c2.936-1.875 6.156-3.537 9.581-4.984 9.612-4.088 18.783-5.308 26.118-4.012 2.595.292 5.342 1.057 7.748 2.654 3.301 1.859 5.826 4.505 7.282 7.875 3.551 8.206-2.381 20.015-14.122 27.261zm45.681-4.192c-.114 3.507-1.402 7.021-3.558 9.994a19.9 19.9 0 0 1-8.287 6.699c-8.62 3.652-17.24 0-19.543-8.184-2.231-7.913 2.96-17.333 11.312-20.931 5.334-2.252 10.686-1.718 14.52.887 2.368 1.606 4.174 4.021 5.017 7.047.106.321.176.658.247.988a14.38 14.38 0 0 1 .292 3.5zm46.901 16.653-36.055-18.033.064 18.894-9.327 1.272-.65-7.788c2.88-4.938 3.933-10.757 2.43-16.093-.825-2.933-2.349-5.479-4.42-7.519l-1.338-15.879-4.188 1.086-.185-4.015 14.978-4.46.918 15.448 11.034-15.503 10.787 10.273-15.085 15.892 14.172 5.606c1.583 3 3.998 5.549 7.028 7.427 2.929 1.808 6.285 2.877 9.835 3.228l.002 10.164zm-18.721-26.126-5.015-1.935 4.675-4.544c-.2 2.086-.097 4.267.34 6.479zm39.237 4.724c-3.46 2.862-7.404 4.728-12.615 5.987a24.716 24.716 0 0 1-3.347.547c-8.271.813-15.21-2.985-17.843-9.145a13.271 13.271 0 0 1-.772-2.307c-1.218-5.188-.178-9.825 2.385-13.458a16.334 16.334 0 0 1 2.598-2.896c2.414-2.154 5.496-3.72 9-4.562 7.879-1.9 14.818.505 19.072 5.725L148.882 51.74c1.018.192 2.637-.075 3.832-.361 3.576-.872 5.577-2.77 7.34-4.838l6 5.398 1.818 1.642a32.347 32.347 0 0 1-2.454 2.287zm31.853 21.327-3.266-21.635-4.619 11.935-6.916-14.917h-.078l-2.733 17.275-11.527-2.006 1.621-9.64c.435-.409.863-.819 1.284-1.252l3.736-3.847-3.631-3.252L175 26.899h11.63l2.911 15.892 3.262-18.417h8.319l3.452 22.438c-4.393 5.004-6.527 11.731-5.059 17.885 1.135 4.771 4.067 8.613 8.27 10.857.423.213.861.424 1.313.606l.44 2.909-12.267-1.874zm28.725-7.049a17.912 17.912 0 0 1-4.174 2.229c-2.969 1.131-5.922 1.366-8.553.843a12.766 12.766 0 0 1-4.961-2.112c-2.314-1.674-4.018-4.146-4.769-7.25-.876-3.729-.069-7.711 1.937-11.199 1-1.705 2.283-3.307 3.801-4.688a18.951 18.951 0 0 1 5.84-3.601c5.083-1.896 10.096-1.242 13.625 1.295a11.938 11.938 0 0 1 3.224 3.452 12.392 12.392 0 0 1 1.447 3.554c1.081 4.478-.206 9.274-3.031 13.138a19.506 19.506 0 0 1-4.386 4.339zm25.955 20.392-8.524-2.539-.743-31.426-4.287 24.243-9.299-1.484.666-6.98c6.072-5.131 9.291-13.225 7.527-20.56-.775-3.248-2.445-6.076-4.799-8.226l.785-8.232-3.516-.936.235-4.395 16.021 3.22 5.387 25.546 5.525-22.903 12.188 2.693-17.166 51.979z" style="fill:#3567b0;fill-opacity:1" transform="matrix(2.9688 0 0 2.9688 -27.245 -5.008)"/><g style="font-style:normal;font-variant:normal;font-weight:400;font-stretch:normal;font-size:4px;line-height:125%;font-family:Arial;-inkscape-font-specification:Arial;letter-spacing:0;word-spacing:0;fill:#000;fill-opacity:1;stroke:none"><path d="M741.543 272.623v-7.043h-2.631v-.943h6.33v.943H742.6v7.043zM746.298 272.623v-7.986h1.59l1.891 5.654c.174.527.301.921.381 1.183.091-.291.233-.718.425-1.28l1.912-5.557h1.422v7.986H752.9v-6.684l-2.32 6.684h-.953l-2.31-6.798v6.798z"/></g></svg>